<?xml version="1.0" encoding="UTF-8"?>
<!-- Created with Inkscape (http://www.inkscape.org/) -->
<svg width="1e3" height="1e3" version="1.1" viewBox="0 0 1e3 1e3" xmlns="http://www.w3.org/2000/svg">
 <g transform="matrix(1.2128 3.0469 -3.0469 1.2128 1851.3 -2315.3)">
  <g transform="matrix(-.27822 -.47427 .47427 -.27822 -395.5 5196.6)" fill="#f60">
   <path d="m6099.6 5893.6c85.52-24.253 147.45-77.773 202.17-142.77-3.9466 7.7333-7.2266 15.907-11.92 23.16-48.493 74.68-114.01 127.35-198.57 157.12-41.96 14.773-83.76 29.12-128.12 33.813-16.133 1.7067-32.613 0.28-52.027 0.28 15.787-25.093 32.92-43.187 56.307-55.88-10.747 3.1467-21.493 6.2934-33.147 9.7067 1.1467-19 6.0134-33.12 24.027-42.96 43.107-23.533 84.947-49.413 127.52-73.947 23.413-13.493 47.333-26.12 70.96-39.227 13.973-7.7467 28.24-15.067 41.533-23.84 4.8267-3.2 7.88-9.76 10.587-15.347 6.5733-13.52 7.3733-13.733 19.08-5.16 1.8667 1.36 7.68 0.4533 9.2133-1.4133 4.4667-5.4534 7.1067-12.4 11.627-17.8 2.6133-3.1067 8.1333-6.7734 11.187-5.9334 8.1866 2.24 13.24-1.2266 17.573-6.6266 11.947-14.88 23.533-30.04 35.28-45.08 1.0667-1.36 2.32-2.5867 4.7067-5.2267 5.7333 18.373 5.2133 35.56 0.5333 52.013-10.307 36.253-31.16 66.133-58.307 92.12-46.773 44.76-98.2 82.68-157.07 110.09-0.6534 0.3066-1.1067 1-3.1467 2.9066"/>
   <path d="m6157.6 5617.4c-33.733 12.627-61.293 37.507-80.467 66.6 25.813-21.36 54.48-45.08 80.467-66.6zm-202.37 147.75c31.093-32.347 62.173-64.68 93.267-97.027 0.5866 0.6267 1.16 1.2533 1.7466 1.8933-10.04 16.827-20.08 33.653-28.08 47.067 27.48-27.387 56.84-57.733 87.413-86.8 22.68-21.56 47.8-40.013 79.133-47.72 3.04-0.7467 5.9333-2.12 11.2-4.04-28.28-1.9867-67.787 15.28-122.39 47.547-56.067 33.133-93.2 82.08-122.29 139.08zm-53.773 88.907c7.6933-15.333 25.373-25.36 24.667-45.667-8.2666 9.1866-16.333 18.16-24.413 27.133-1.16-0.56-2.3333-1.1333-3.5067-1.6933 3.1734-10.36 5.16-21.267 9.7067-30.987 43.693-93.453 106.29-169.27 200.56-216.19 37.587-18.707 75.44-35.453 117.77-39.333 6.3467-0.5867 12.72-1.0667 19.093-1.08 15.733-0.027 18.747 3.6267 14.933 19.173-6.88 28.067-23.387 50.947-40.413 73.507-54.253 71.853-119.16 132.27-196 179.17-25.867 15.8-53.787 28.267-81.133 41.52-12.133 5.88-24.64 3.44-41.267-5.56"/>
  </g>
 </g>
</svg>
